<?xml version="1.0" encoding="UTF-8"?>
<svg width="764px" height="174px" viewBox="0 0 764 174" version="1.1" xmlns="http://www.w3.org/2000/svg" xmlns:xlink="http://www.w3.org/1999/xlink">
    <!-- Generator: Sketch 52.3 (67297) - http://www.bohemiancoding.com/sketch -->
    <title>TETRIS</title>
    <desc>Created with Sketch.</desc>
    <g id="Page-1" stroke="none" stroke-width="1" fill="none" fill-rule="evenodd">
        <path d="M144.206605,3.25 L240.80144,3.25 C243.236626,3.25 247.565844,3 250.001029,2 L250.001029,38.75 C243.236626,30.25 235.660494,28 221.049383,28 L203.73251,28 L203.73251,69 L232.41358,69 C234.848765,69 238.636831,68.25 240.80144,67.75 L240.80144,103 C236.742798,96.75 231.601852,93.75 219.967078,93.75 L203.73251,93.75 L203.73251,142 C212.390947,145 222.131687,145.5 232.41358,145.5 C250.812757,145.5 262.176955,142.75 273,131.75 L262.988683,169.75 L141.5,169.75 C153.946502,161.25 153.134774,151.5 153.134774,136.75 L153.134774,36.5 C153.134774,22.7279426 153.842433,13.0969042 143.804911,4.96140902 L135.228733,41.5 C131.411153,35.25 126.77552,30.25 113.686673,30.25 C108.232987,30.25 101.415879,30.75 97.3256144,31.75 L97.3256144,136.25 C97.3256144,151 99.5070888,160 109.869093,170 L36.2443289,170 C48.7878072,161.5 48.2424386,151.25 48.2424386,136.75 L48.2424386,31.75 C42.5160681,30.75 36.7896975,31 32.4267486,31 C16.06569,31 6.79442344,37.5 0.25,41.5 L10.8846881,2.75 C20.7013233,3.25 30.2452741,3.25 35.426276,3.25 L117.776938,3.25 C126.77552,3.25 136.046786,3.25 144.5,2 L144.206605,3.25 Z M395.25,2 L386.043006,41.5 C382.25189,35.25 377.648393,30.25 364.650284,30.25 C359.234405,30.25 353.464556,30.75 349.402647,31.75 L349.402647,136.25 C349.402647,151 351.568998,160 361.859168,170 L286.744802,170 C299.201323,161.5 298.659735,151.25 298.659735,136.75 L298.659735,31.75 C292.973062,30.75 288.286389,31 283.953686,31 C267.706049,31 258.499055,37.5 252,41.5 L262.560964,2.75 C272.309546,3.25 281.787335,3.25 286.93242,3.25 L368.712193,3.25 C377.648393,3.25 386.855388,3.25 395.25,2 Z M371,167 C381,167.666667 394.333333,168.666667 411,170 C430,169 435.876794,166.25 448.676236,147 C456.029107,136 466.377592,118.25 476.181419,98.25 L476.181419,136.5 C476.181419,150.75 476.998405,161 464.471292,169.75 L538,169.75 C527.923844,162.75 526.289872,154.5 526.289872,143.25 L526.289872,31.25 C526.289872,19.25 527.106858,10.5 538,3 L449.493222,3 C415.179825,3 395.027512,23 395.027512,45.5 C395.027512,64.5 406.192982,78.25 428.251595,87.5 C420,101 409,117 393.665869,140.75 C385.511462,153.37981 380,158 371,167 Z M474.75,26 L474.75,83.25 C456.613636,79.5 446.25,67.5 446.25,49 C446.25,38.75 453.763636,26 472.936364,26 L474.75,26 Z M610.885185,36.5 L610.885185,136.75 C610.885185,151 610.057407,161.25 622.75,170 L548.25,170 C560.942593,161.5 560.114815,151.5 560.114815,136.75 L560.114815,36.5 C560.114815,21.75 560.942593,11.75 548.25,3.25 L622.75,3.25 C610.057407,12 610.885185,22.25 610.885185,36.5 Z M742.731827,7.5 L742.731827,37 C729.053045,29.25 716.19499,25 701.969057,25 C688.563851,25 679.262279,32 679.262279,41 C679.262279,49 684.460216,53.5 695.950393,58.25 C714.279961,65.75 731.24165,71.5 745.194008,83.5 C758.052063,94.75 763.25,105 763.25,120.75 C763.25,150 736.986739,173.25 686.922397,173.25 C668.319253,173.25 651.357564,170.5 633.301572,164.25 L624,128 C641.782417,140.75 663.121316,147.5 682.545187,147.5 C701.969057,147.5 711.81778,140 711.81778,129.5 C711.81778,120.25 705.52554,114.75 692.941061,109 C671.05501,99.25 653.546169,92.25 643.150295,83.25 C633.027996,74.5 627.282908,62.25 627.282908,50.25 C627.282908,19.25 655.461198,0 691.026031,0 C704.978389,0 721.666503,0.5 742.731827,7.5 Z" id="TETRIS" fill="#000000"></path>
    </g>
</svg>